<svg width="16" height="12" viewBox="0 0 16 12" fill="none" xmlns="http://www.w3.org/2000/svg">
<path id="Vector" fill-rule="evenodd" clip-rule="evenodd" d="M5.96173 0.932357C6.12837 1.09905 6.22199 1.32511 6.22199 1.56082C6.22199 1.79652 6.12837 2.02258 5.96173 2.18928L2.14564 6.00537L5.96173 9.82146C6.12365 9.98911 6.21325 10.2136 6.21122 10.4467C6.2092 10.6798 6.11571 10.9027 5.9509 11.0675C5.78609 11.2324 5.56314 11.3258 5.33007 11.3279C5.097 11.3299 4.87246 11.2403 4.70481 11.0784L0.260261 6.63383C0.0936158 6.46713 0 6.24107 0 6.00537C0 5.76966 0.0936158 5.5436 0.260261 5.37691L4.70481 0.932357C4.87151 0.765712 5.09756 0.672096 5.33327 0.672096C5.56898 0.672096 5.79503 0.765712 5.96173 0.932357V0.932357ZM10.0383 0.932357C10.205 0.765712 10.431 0.672096 10.6667 0.672096C10.9024 0.672096 11.1285 0.765712 11.2952 0.932357L15.7397 5.37691C15.9064 5.5436 16 5.76966 16 6.00537C16 6.24107 15.9064 6.46713 15.7397 6.63383L11.2952 11.0784C11.1275 11.2403 10.903 11.3299 10.6699 11.3279C10.4369 11.3258 10.2139 11.2324 10.0491 11.0675C9.88429 10.9027 9.7908 10.6798 9.78878 10.4467C9.78675 10.2136 9.87635 9.98911 10.0383 9.82146L13.8544 6.00537L10.0383 2.18928C9.87163 2.02258 9.77801 1.79652 9.77801 1.56082C9.77801 1.32511 9.87163 1.09905 10.0383 0.932357V0.932357Z" fill="white"/>
</svg>
