<svg width="16" height="16" viewBox="0 0 16 16" fill="none" xmlns="http://www.w3.org/2000/svg">
<path id="Vector" fill-rule="evenodd" clip-rule="evenodd" d="M1.98139 5.41946L4.57489 4.50458C4.03941 5.22539 3.57953 5.99938 3.2025 6.81433L1.98139 5.41946ZM0.179902 5.57L2.58212 8.31464L2.23448 9.18443C2.18157 9.31644 2.16853 9.46106 2.19697 9.6004C2.22541 9.73974 2.29408 9.86769 2.39449 9.96841L2.62358 10.1968C1.38429 11.5931 0.700638 13.0541 0.0373543 15.0424C-0.00538068 15.1706 -0.0115825 15.3081 0.0194439 15.4395C0.0504704 15.571 0.117499 15.6912 0.213017 15.7867C0.308535 15.8823 0.428768 15.9493 0.560239 15.9803C0.691711 16.0113 0.829225 16.0051 0.95737 15.9624C2.94577 15.2991 4.40688 14.6155 5.80327 13.3763L6.03164 13.6047C6.13228 13.7052 6.2602 13.774 6.39955 13.8025C6.5389 13.8311 6.68357 13.8182 6.81565 13.7654L7.68548 13.4178L10.4303 15.8199C10.5197 15.8982 10.6269 15.9534 10.7426 15.9806C10.8583 16.0079 10.9789 16.0064 11.0939 15.9762C11.2088 15.9461 11.3146 15.8882 11.4021 15.8077C11.4895 15.7272 11.5559 15.6265 11.5954 15.5144L13.767 9.36188C15.2095 7.65513 16.0008 5.49267 16.0005 3.25808V0.72725C16.0005 0.534371 15.9239 0.349392 15.7875 0.213006C15.6511 0.0766208 15.4661 9.28462e-08 15.2732 9.28462e-08H12.7423C10.5079 -0.000312888 8.34564 0.790665 6.63892 2.23266L0.486089 4.40495C0.374118 4.44449 0.273531 4.51084 0.193115 4.59821C0.112699 4.68558 0.0549007 4.79131 0.0247686 4.90616C-0.00536347 5.02102 -0.00691268 5.1415 0.0202565 5.25709C0.0474256 5.37269 0.102487 5.47987 0.180629 5.56928L0.179902 5.57ZM1.95302 14.0468C2.40976 12.9443 2.92177 12.0672 3.65414 11.2273L4.77271 12.3458C3.93269 13.0781 3.05559 13.5901 1.95302 14.0468V14.0468ZM6.7211 12.2374L6.33273 11.8491L4.15088 9.66733L3.76251 9.27898L4.27888 7.98811C4.75276 6.80389 5.41813 5.70564 6.24837 4.7373L6.66729 4.24786C7.41845 3.37162 8.35032 2.66827 9.39895 2.1861C10.4476 1.70392 11.5881 1.45435 12.7423 1.4545H14.546V3.25808C14.5461 4.4122 14.2965 5.55269 13.8143 6.60126C13.3321 7.64984 12.6288 8.58167 11.7525 9.33279L11.263 9.75169C10.2946 10.5819 9.1963 11.2472 8.01204 11.7211L6.7211 12.2374V12.2374ZM10.5808 14.0185L9.18587 12.7981C10.0009 12.4211 10.7749 11.9613 11.4957 11.4258L10.5808 14.0185V14.0185ZM10.1823 5.09075C10.1823 4.89787 10.2589 4.71289 10.3953 4.5765C10.5317 4.44012 10.7167 4.3635 10.9095 4.3635C11.1024 4.3635 11.2874 4.44012 11.4238 4.5765C11.5602 4.71289 11.6368 4.89787 11.6368 5.09075C11.6368 5.28362 11.5602 5.4686 11.4238 5.60499C11.2874 5.74137 11.1024 5.818 10.9095 5.818C10.7167 5.818 10.5317 5.74137 10.3953 5.60499C10.2589 5.4686 10.1823 5.28362 10.1823 5.09075V5.09075ZM10.9095 2.909C10.3309 2.909 9.77591 3.13886 9.36673 3.54802C8.95756 3.95717 8.72768 4.51211 8.72768 5.09075C8.72768 5.66938 8.95756 6.22432 9.36673 6.63348C9.77591 7.04263 10.3309 7.27249 10.9095 7.27249C11.4882 7.27249 12.0432 7.04263 12.4523 6.63348C12.8615 6.22432 13.0914 5.66938 13.0914 5.09075C13.0914 4.51211 12.8615 3.95717 12.4523 3.54802C12.0432 3.13886 11.4882 2.909 10.9095 2.909Z" fill="white"/>
</svg>
