<svg width="18" height="16" viewBox="0 0 18 16" fill="none" xmlns="http://www.w3.org/2000/svg">
<path id="dashboard" fill-rule="evenodd" clip-rule="evenodd" d="M8.43752 0.215561C8.58268 0.0771905 8.77553 0 8.97608 0C9.17663 0 9.36948 0.0771905 9.51464 0.215561L15.7588 6.16204L17.7101 8.01959C17.8602 8.16241 17.9474 8.35901 17.9525 8.56612C17.9576 8.77323 17.8802 8.97389 17.7374 9.12397C17.5946 9.27404 17.398 9.36123 17.1908 9.36635C16.9837 9.37147 16.7831 9.29411 16.633 9.15128L16.0008 8.54797V14.439C16.0008 14.853 15.8363 15.2501 15.5435 15.5428C15.2508 15.8355 14.8537 16 14.4397 16H3.51244C3.09843 16 2.70138 15.8355 2.40862 15.5428C2.11587 15.2501 1.95141 14.853 1.95141 14.439V8.54797L1.31919 9.1505C1.16931 9.29333 0.968838 9.37077 0.761862 9.3658C0.554887 9.36082 0.358366 9.27383 0.215531 9.12397C0.0726968 8.9741 -0.00475093 8.77364 0.000225844 8.56667C0.00520262 8.35971 0.0921962 8.16319 0.242069 8.02037L2.19337 6.16204L8.43752 0.214781V0.215561ZM3.51244 7.06194V14.439H6.63452V10.5366C6.63452 9.91565 6.88122 9.32009 7.32035 8.88099C7.75947 8.44188 8.35506 8.19519 8.97608 8.19519C9.5971 8.19519 10.1927 8.44188 10.6318 8.88099C11.0709 9.32009 11.3176 9.91565 11.3176 10.5366V14.439H14.4397V7.06194L8.97608 1.85769L3.51244 7.06116V7.06194ZM9.7566 14.439V10.5366C9.7566 10.3296 9.67437 10.1311 9.52799 9.98475C9.38161 9.83839 9.18309 9.75616 8.97608 9.75616C8.76907 9.75616 8.57054 9.83839 8.42417 9.98475C8.27779 10.1311 8.19556 10.3296 8.19556 10.5366V14.439H9.7566Z" fill="white"/>
</svg>
