<svg width="16" height="16" viewBox="0 0 16 16" fill="none" xmlns="http://www.w3.org/2000/svg">
<path id="Vector" fill-rule="evenodd" clip-rule="evenodd" d="M8.00039 1.45455C7.14078 1.45455 6.2896 1.62385 5.49543 1.95279C4.70126 2.28173 3.97966 2.76386 3.37183 3.37166C2.764 3.97947 2.28184 4.70103 1.95288 5.49516C1.62393 6.28929 1.45462 7.14044 1.45462 8C1.45462 8.85956 1.62393 9.71071 1.95288 10.5048C2.28184 11.299 2.764 12.0205 3.37183 12.6283C3.97966 13.2361 4.70126 13.7183 5.49543 14.0472C6.2896 14.3762 7.14078 14.5455 8.00039 14.5455C9.73643 14.5455 11.4014 13.8558 12.6289 12.6283C13.8565 11.4008 14.5462 9.73596 14.5462 8C14.5462 6.26404 13.8565 4.59918 12.6289 3.37166C11.4014 2.14415 9.73643 1.45455 8.00039 1.45455V1.45455ZM0 8C0 3.58182 3.58199 0 8.00039 0C12.4188 0 16.0008 3.58182 16.0008 8C16.0008 12.4182 12.4188 16 8.00039 16C3.58199 16 0 12.4182 0 8ZM8.90952 4.54545C8.90952 4.78656 8.81374 5.01779 8.64324 5.18828C8.47275 5.35877 8.2415 5.45455 8.00039 5.45455C7.75927 5.45455 7.52803 5.35877 7.35753 5.18828C7.18704 5.01779 7.09125 4.78656 7.09125 4.54545C7.09125 4.30435 7.18704 4.07312 7.35753 3.90263C7.52803 3.73214 7.75927 3.63636 8.00039 3.63636C8.2415 3.63636 8.47275 3.73214 8.64324 3.90263C8.81374 4.07312 8.90952 4.30435 8.90952 4.54545V4.54545ZM7.27308 6.54545C7.08019 6.54545 6.89519 6.62208 6.75879 6.75847C6.6224 6.89486 6.54577 7.07984 6.54577 7.27273C6.54577 7.46561 6.6224 7.6506 6.75879 7.78699C6.89519 7.92338 7.08019 8 7.27308 8V11.6364C7.27308 11.8292 7.34971 12.0142 7.4861 12.1506C7.6225 12.287 7.80749 12.3636 8.00039 12.3636C8.19328 12.3636 8.37827 12.287 8.51467 12.1506C8.65107 12.0142 8.72769 11.8292 8.72769 11.6364V7.27273C8.72769 7.07984 8.65107 6.89486 8.51467 6.75847C8.37827 6.62208 8.19328 6.54545 8.00039 6.54545H7.27308Z" fill="white"/>
</svg>
