<svg width="17" height="16" viewBox="0 0 17 16" fill="none" xmlns="http://www.w3.org/2000/svg">
<path id="Vector" fill-rule="evenodd" clip-rule="evenodd" d="M0.800043 1.04566e-07C0.587859 1.04566e-07 0.384364 0.0842901 0.234327 0.234327C0.08429 0.384365 0 0.587859 0 0.800043C0 1.01223 0.08429 1.21572 0.234327 1.36576C0.384364 1.5158 0.587859 1.60009 0.800043 1.60009H1.17766C1.35322 1.60005 1.52391 1.65776 1.66342 1.76431C1.80294 1.87086 1.90354 2.02035 1.94971 2.18972L2.28252 3.41058L4.00022 9.70693V11.2006C4.00022 11.7558 4.18823 12.2663 4.50424 12.6727C4.27806 12.9277 4.12079 13.2363 4.04738 13.5691C3.97397 13.902 3.98685 14.2481 4.08479 14.5746C4.18274 14.9011 4.36249 15.1971 4.607 15.4346C4.85151 15.6721 5.15266 15.8432 5.48186 15.9316C5.81107 16.02 6.1574 16.0228 6.48799 15.9397C6.81857 15.8566 7.12244 15.6905 7.37076 15.4569C7.61907 15.2234 7.80359 14.9303 7.90679 14.6055C8.00999 14.2806 8.02846 13.9347 7.96043 13.6007H10.4406C10.3784 13.9061 10.3885 14.2218 10.47 14.5226C10.5515 14.8235 10.7022 15.1011 10.91 15.3333C11.1179 15.5655 11.3771 15.746 11.6671 15.8603C11.957 15.9746 12.2696 16.0195 12.58 15.9916C12.8905 15.9636 13.19 15.8635 13.4549 15.6992C13.7197 15.5349 13.9425 15.311 14.1054 15.0453C14.2684 14.7796 14.367 14.4796 14.3934 14.169C14.4198 13.8585 14.3733 13.5461 14.2576 13.2567C14.3408 13.1367 14.3896 12.9963 14.3987 12.8505C14.4078 12.7048 14.3768 12.5594 14.3092 12.43C14.2415 12.3006 14.1397 12.1921 14.0148 12.1165C13.89 12.0408 13.7468 12.0007 13.6007 12.0006H6.40115C6.18896 12.0006 5.98547 11.9164 5.83543 11.7663C5.68539 11.6163 5.6011 11.4128 5.6011 11.2006V10.4006H13.7903C14.1414 10.4006 14.4828 10.2852 14.7619 10.0721C15.0409 9.85901 15.2421 9.56004 15.3344 9.2213L16.6425 4.42104C16.7072 4.18352 16.7163 3.93427 16.669 3.69268C16.6217 3.45109 16.5193 3.22367 16.3697 3.02813C16.2201 2.83259 16.0275 2.67419 15.8067 2.56527C15.5859 2.45635 15.343 2.39983 15.0968 2.40013H3.6658L3.49379 1.7681C3.35513 1.26013 3.05328 0.811857 2.63474 0.492353C2.2162 0.172848 1.70421 -0.000155271 1.17766 1.04566e-07H0.800043ZM12.4007 13.6007C12.2946 13.6007 12.1928 13.6429 12.1178 13.7179C12.0428 13.7929 12.0006 13.8947 12.0006 14.0008C12.0006 14.1068 12.0428 14.2086 12.1178 14.2836C12.1928 14.3586 12.2946 14.4008 12.4007 14.4008C12.5068 14.4008 12.6085 14.3586 12.6835 14.2836C12.7585 14.2086 12.8007 14.1068 12.8007 14.0008C12.8007 13.8947 12.7585 13.7929 12.6835 13.7179C12.6085 13.6429 12.5068 13.6007 12.4007 13.6007ZM13.7895 8.80048H5.41149L4.10182 4.00022H15.0976L13.7895 8.80048ZM6.00032 13.6007C5.89423 13.6007 5.79248 13.6429 5.71747 13.7179C5.64245 13.7929 5.6003 13.8947 5.6003 14.0008C5.6003 14.1068 5.64245 14.2086 5.71747 14.2836C5.79248 14.3586 5.89423 14.4008 6.00032 14.4008C6.10642 14.4008 6.20816 14.3586 6.28318 14.2836C6.3582 14.2086 6.40035 14.1068 6.40035 14.0008C6.40035 13.8947 6.3582 13.7929 6.28318 13.7179C6.20816 13.6429 6.10642 13.6007 6.00032 13.6007Z" fill="white"/>
</svg>
