<svg width="21" height="17" viewBox="0 0 21 17" fill="none" xmlns="http://www.w3.org/2000/svg">
<path fill-rule="evenodd" clip-rule="evenodd" d="M10.507 2.00262C9.44618 2.00262 8.42876 2.42405 7.67862 3.17419C6.92847 3.92434 6.50704 4.94175 6.50704 6.00262V7.00262H5.50704C5.04742 7.00262 4.59229 7.09315 4.16765 7.26904C3.74301 7.44493 3.35718 7.70274 3.03217 8.02775C2.70717 8.35275 2.44936 8.73859 2.27347 9.16323C2.09757 9.58787 2.00704 10.043 2.00704 10.5026C2.00704 10.9622 2.09757 11.4174 2.27347 11.842C2.44936 12.2667 2.70717 12.6525 3.03217 12.9775C3.35718 13.3025 3.74301 13.5603 4.16765 13.7362C4.59229 13.9121 5.04742 14.0026 5.50704 14.0026H15.507C15.9667 14.0026 16.4218 13.9121 16.8464 13.7362C17.2711 13.5603 17.6569 13.3025 17.9819 12.9775C18.3069 12.6525 18.5647 12.2667 18.7406 11.842C18.9165 11.4174 19.007 10.9622 19.007 10.5026C19.007 10.043 18.9165 9.58787 18.7406 9.16323C18.5647 8.73859 18.3069 8.35275 17.9819 8.02775C17.6569 7.70274 17.2711 7.44493 16.8464 7.26904C16.4218 7.09315 15.9667 7.00262 15.507 7.00262H14.507V6.00262C14.507 4.94175 14.0856 3.92434 13.3355 3.17419C12.5853 2.42405 11.5679 2.00262 10.507 2.00262ZM4.57704 5.08062C4.79668 3.6655 5.51514 2.37559 6.60264 1.44385C7.69014 0.512117 9.07499 0 10.507 0C11.9391 0 13.324 0.512117 14.4115 1.44385C15.499 2.37559 16.2174 3.6655 16.437 5.08062C17.7922 5.31719 19.0095 6.05281 19.8491 7.14248C20.6887 8.23214 21.0897 9.59679 20.973 10.9674C20.8563 12.3381 20.2303 13.6153 19.2186 14.5473C18.2068 15.4794 16.8827 15.9986 15.507 16.0026H5.50704C4.12792 16.0044 2.79846 15.488 1.78215 14.5557C0.765838 13.6235 0.13685 12.3434 0.0198418 10.9693C-0.0971663 9.5951 0.306346 8.22714 1.15041 7.13648C1.99447 6.04581 3.21748 5.31205 4.57704 5.08062Z" fill="white"/>
</svg>
