<svg width="16" height="16" viewBox="0 0 16 16" fill="none" xmlns="http://www.w3.org/2000/svg">
<path id="Vector" fill-rule="evenodd" clip-rule="evenodd" d="M6.23552 0C6.02335 0 5.81987 0.0842854 5.66984 0.234315C5.51981 0.384344 5.43552 0.587827 5.43552 0.8V2.0656C4.88381 2.28907 4.36601 2.5885 3.89712 2.9552L2.80032 2.3216C2.61658 2.21552 2.39822 2.18677 2.19328 2.24168C1.98835 2.29659 1.81361 2.43066 1.70752 2.6144L0.107523 5.3856C0.00144085 5.56934 -0.0273068 5.7877 0.0276035 5.99264C0.0825137 6.19758 0.216584 6.37231 0.400323 6.4784L1.49632 7.1112C1.41428 7.70089 1.41428 8.29911 1.49632 8.8888L0.400323 9.5208C0.309239 9.57333 0.229404 9.6433 0.165383 9.72671C0.101363 9.81012 0.054413 9.90533 0.0272189 10.0069C2.4876e-05 10.1085 -0.00688005 10.2144 0.00689918 10.3186C0.0206784 10.4229 0.0548714 10.5234 0.107523 10.6144L1.70752 13.3856C1.81361 13.5693 1.98835 13.7034 2.19328 13.7583C2.39822 13.8132 2.61658 13.7845 2.80032 13.6784L3.89712 13.0448C4.36192 13.4088 4.87952 13.7088 5.43552 13.9344V15.2C5.43552 15.4122 5.51981 15.6157 5.66984 15.7657C5.81987 15.9157 6.02335 16 6.23552 16H9.43552C9.6477 16 9.85118 15.9157 10.0012 15.7657C10.1512 15.6157 10.2355 15.4122 10.2355 15.2V13.9344C10.7872 13.7109 11.305 13.4115 11.7739 13.0448L12.8707 13.6784C13.0545 13.7845 13.2728 13.8132 13.4778 13.7583C13.6827 13.7034 13.8574 13.5693 13.9635 13.3856L15.5635 10.6144C15.6696 10.4307 15.6984 10.2123 15.6434 10.0074C15.5885 9.80242 15.4545 9.62769 15.2707 9.5216L14.1747 8.8888C14.2568 8.29911 14.2568 7.70089 14.1747 7.1112L15.2707 6.4792C15.3618 6.42667 15.4416 6.3567 15.5057 6.27329C15.5697 6.18988 15.6166 6.09467 15.6438 5.9931C15.671 5.89153 15.6779 5.7856 15.6641 5.68136C15.6504 5.57712 15.6162 5.47661 15.5635 5.3856L13.9635 2.6144C13.8574 2.43066 13.6827 2.29659 13.4778 2.24168C13.2728 2.18677 13.0545 2.21552 12.8707 2.3216L11.7739 2.9552C11.305 2.58851 10.7872 2.28908 10.2355 2.0656V0.8C10.2355 0.587827 10.1512 0.384344 10.0012 0.234315C9.85118 0.0842854 9.6477 0 9.43552 0H6.23552ZM7.03552 2.632V1.6H8.63552V2.632C8.63561 2.80431 8.69134 2.97199 8.7944 3.11008C8.89746 3.24817 9.04236 3.34929 9.20752 3.3984C9.92782 3.61351 10.5874 3.99497 11.1331 4.512C11.2583 4.63061 11.4185 4.70559 11.5897 4.72578C11.761 4.74596 11.9342 4.71026 12.0835 4.624L12.9779 4.1072L13.7779 5.4928L12.8843 6.0088C12.7352 6.09488 12.6178 6.22678 12.5497 6.38489C12.4815 6.54299 12.4662 6.71888 12.5059 6.8864C12.6799 7.6186 12.6799 8.3814 12.5059 9.1136C12.4662 9.28112 12.4815 9.45701 12.5497 9.61511C12.6178 9.77322 12.7352 9.90512 12.8843 9.9912L13.7779 10.5072L12.9779 11.8928L12.0827 11.376C11.9335 11.2899 11.7604 11.2543 11.5893 11.2745C11.4183 11.2947 11.2582 11.3696 11.1331 11.488C10.5875 12.0051 9.92784 12.3865 9.20752 12.6016C9.04236 12.6507 8.89746 12.7518 8.7944 12.8899C8.69134 13.028 8.63561 13.1957 8.63552 13.368V14.4H7.03552V13.368C7.03543 13.1957 6.97971 13.028 6.87664 12.8899C6.77358 12.7518 6.62869 12.6507 6.46352 12.6016C5.74322 12.3865 5.08359 12.0051 4.53792 11.488C4.41274 11.3694 4.25258 11.2944 4.08132 11.2742C3.91005 11.254 3.73685 11.2897 3.58752 11.376L2.69312 11.8928L1.89312 10.5072L2.78672 9.9912C2.93584 9.90512 3.0532 9.77322 3.12137 9.61511C3.18954 9.45701 3.20489 9.28112 3.16512 9.1136C2.9911 8.3814 2.9911 7.6186 3.16512 6.8864C3.20489 6.71888 3.18954 6.54299 3.12137 6.38489C3.0532 6.22678 2.93584 6.09488 2.78672 6.0088L1.89312 5.4928L2.69312 4.1072L3.58752 4.624C3.73685 4.71026 3.91005 4.74596 4.08132 4.72578C4.25258 4.70559 4.41274 4.63061 4.53792 4.512C5.08361 3.99497 5.74323 3.61351 6.46352 3.3984C6.62869 3.34929 6.77358 3.24817 6.87664 3.11008C6.97971 2.97199 7.03543 2.80431 7.03552 2.632ZM6.23552 8C6.23552 7.57565 6.40409 7.16869 6.70415 6.86863C7.00421 6.56857 7.41118 6.4 7.83552 6.4C8.25987 6.4 8.66683 6.56857 8.96689 6.86863C9.26695 7.16869 9.43552 7.57565 9.43552 8C9.43552 8.42435 9.26695 8.83131 8.96689 9.13137C8.66683 9.43143 8.25987 9.6 7.83552 9.6C7.41118 9.6 7.00421 9.43143 6.70415 9.13137C6.40409 8.83131 6.23552 8.42435 6.23552 8ZM7.83552 4.8C6.98683 4.8 6.1729 5.13714 5.57278 5.73726C4.97266 6.33737 4.63552 7.15131 4.63552 8C4.63552 8.84869 4.97266 9.66263 5.57278 10.2627C6.1729 10.8629 6.98683 11.2 7.83552 11.2C8.68422 11.2 9.49815 10.8629 10.0983 10.2627C10.6984 9.66263 11.0355 8.84869 11.0355 8C11.0355 7.15131 10.6984 6.33737 10.0983 5.73726C9.49815 5.13714 8.68422 4.8 7.83552 4.8V4.8Z" fill="white"/>
</svg>
