<svg width="68" height="51" viewBox="0 0 68 51" fill="none" xmlns="http://www.w3.org/2000/svg">
<path id="Vector" fill-rule="evenodd" clip-rule="evenodd" d="M34.0339 6.3823C30.6481 6.3823 27.401 7.72538 25.0068 10.1161C22.6127 12.5068 21.2677 15.7493 21.2677 19.1302V22.3172H18.0761C16.6092 22.3172 15.1566 22.6057 13.8013 23.1663C12.4461 23.7268 11.2146 24.5485 10.1774 25.5842C9.1401 26.62 8.31729 27.8497 7.75592 29.203C7.19455 30.5563 6.90561 32.0068 6.90561 33.4716C6.90561 34.9364 7.19455 36.3869 7.75592 37.7402C8.31729 39.0935 9.1401 40.3232 10.1774 41.359C11.2146 42.3948 12.4461 43.2164 13.8013 43.777C15.1566 44.3375 16.6092 44.626 18.0761 44.626H49.9918C51.4587 44.626 52.9112 44.3375 54.2665 43.777C55.6218 43.2164 56.8532 42.3948 57.8905 41.359C58.9278 40.3232 59.7506 39.0935 60.3119 37.7402C60.8733 36.3869 61.1622 34.9364 61.1622 33.4716C61.1622 32.0068 60.8733 30.5563 60.3119 29.203C59.7506 27.8497 58.9278 26.62 57.8905 25.5842C56.8532 24.5485 55.6218 23.7268 54.2665 23.1663C52.9112 22.6057 51.4587 22.3172 49.9918 22.3172H46.8002V19.1302C46.8002 15.7493 45.4552 12.5068 43.061 10.1161C40.6669 7.72538 37.4198 6.3823 34.0339 6.3823ZM15.1079 16.1918C15.8089 11.6819 18.1019 7.57094 21.5728 4.60152C25.0436 1.63211 29.4634 0 34.0339 0C38.6044 0 43.0243 1.63211 46.4951 4.60152C49.9659 7.57094 52.2589 11.6819 52.9599 16.1918C57.2849 16.9458 61.1701 19.2902 63.8498 22.7629C66.5294 26.2356 67.8091 30.5848 67.4367 34.953C67.0642 39.3212 65.0665 43.3917 61.8374 46.362C58.6083 49.3323 54.3821 50.9871 49.9918 51H18.0761C13.6745 51.0056 9.43148 49.3598 6.18785 46.3887C2.94422 43.4176 0.936765 39.3382 0.563326 34.9588C0.189887 30.5794 1.47772 26.2197 4.1716 22.7438C6.86548 19.2679 10.7688 16.9294 15.1079 16.1918Z" fill="white"/>
</svg>
