<svg width="16" height="16" viewBox="0 0 16 16" fill="none" xmlns="http://www.w3.org/2000/svg">
<path fill-rule="evenodd" clip-rule="evenodd" d="M2.66671 8.00001C2.66671 6.58552 3.22861 5.22897 4.2288 4.22877C5.229 3.22858 6.58555 2.66668 8.00004 2.66668C9.41453 2.66668 10.7711 3.22858 11.7713 4.22877C12.7715 5.22897 13.3334 6.58552 13.3334 8.00001C13.3334 9.4145 12.7715 10.7711 11.7713 11.7712C10.7711 12.7714 9.41453 13.3333 8.00004 13.3333C6.58555 13.3333 5.229 12.7714 4.2288 11.7712C3.22861 10.7711 2.66671 9.4145 2.66671 8.00001ZM8.00004 1.33334C4.31804 1.33334 1.33337 4.31801 1.33337 8.00001C1.33337 11.682 4.31804 14.6667 8.00004 14.6667C11.682 14.6667 14.6667 11.682 14.6667 8.00001C14.6667 4.31801 11.682 1.33334 8.00004 1.33334ZM8.66671 4.00001C8.66671 3.8232 8.59647 3.65363 8.47144 3.52861C8.34642 3.40358 8.17685 3.33334 8.00004 3.33334C7.82323 3.33334 7.65366 3.40358 7.52864 3.52861C7.40361 3.65363 7.33337 3.8232 7.33337 4.00001V8.00001C7.33341 8.17681 7.40367 8.34635 7.52871 8.47134L9.52871 10.4713C9.65444 10.5928 9.82284 10.66 9.99764 10.6585C10.1724 10.6569 10.3396 10.5868 10.4633 10.4632C10.5869 10.3396 10.657 10.1724 10.6585 9.99761C10.66 9.82281 10.5928 9.65441 10.4714 9.52868L8.66671 7.72401V4.00001Z" fill="#BDBDBD"/>
</svg>
