<svg width="25" height="25" viewBox="0 0 25 25" fill="none" xmlns="http://www.w3.org/2000/svg">
<path fill-rule="evenodd" clip-rule="evenodd" d="M23.8106 0.991979C24.1889 1.37022 24.4014 1.88322 24.4014 2.41814C24.4014 2.95305 24.1889 3.46605 23.8106 3.8443L15.2537 12.4012L23.8106 20.9582C24.1889 21.3364 24.4014 21.8494 24.4014 22.3844C24.4014 22.9193 24.1889 23.4323 23.8106 23.8105C23.4324 24.1887 22.9194 24.4012 22.3845 24.4012C21.8496 24.4012 21.3366 24.1887 20.9583 23.8105L12.4014 15.2536L3.84442 23.8105C3.46618 24.1887 2.95317 24.4012 2.41826 24.4012C1.88335 24.4012 1.37034 24.1887 0.992103 23.8105C0.613862 23.4323 0.401368 22.9193 0.401367 22.3844C0.401368 21.8494 0.613862 21.3364 0.992103 20.9582L9.54905 12.4012L0.992103 3.8443C0.613862 3.46605 0.40137 2.95305 0.40137 2.41814C0.401369 1.88322 0.613862 1.37022 0.992103 0.991979C1.37034 0.613738 1.88335 0.401245 2.41826 0.401245C2.95317 0.401245 3.46618 0.613738 3.84442 0.991979L12.4014 9.54893L20.9583 0.991979C21.3366 0.613738 21.8496 0.401245 22.3845 0.401245C22.9194 0.401245 23.4324 0.613738 23.8106 0.991979Z" fill="#A9F9C4"/>
</svg>
