<svg width="13" height="13" viewBox="0 0 13 13" fill="none" xmlns="http://www.w3.org/2000/svg">
<path fill-rule="evenodd" clip-rule="evenodd" d="M0.458453 0.458698C0.647573 0.269577 0.904075 0.163331 1.17153 0.163331C1.43899 0.163331 1.69549 0.269577 1.88461 0.458697L6.16309 4.73717L10.4416 0.458697C10.6307 0.269577 10.8872 0.16333 11.1546 0.16333C11.4221 0.16333 11.6786 0.269577 11.8677 0.458698C12.0568 0.647818 12.1631 0.90432 12.1631 1.17178C12.1631 1.43923 12.0568 1.69574 11.8677 1.88486L7.58924 6.16333L11.8677 10.4418C12.0568 10.6309 12.1631 10.8874 12.1631 11.1549C12.1631 11.4223 12.0568 11.6788 11.8677 11.868C11.6786 12.0571 11.4221 12.1633 11.1546 12.1633C10.8872 12.1633 10.6307 12.0571 10.4416 11.868L6.16309 7.58949L1.88461 11.868C1.69549 12.0571 1.43899 12.1633 1.17153 12.1633C0.904075 12.1633 0.647573 12.0571 0.458453 11.868C0.269333 11.6788 0.163086 11.4223 0.163086 11.1549C0.163086 10.8874 0.269332 10.6309 0.458453 10.4418L4.73693 6.16333L0.458453 1.88486C0.269332 1.69574 0.163086 1.43923 0.163086 1.17178C0.163086 0.90432 0.269333 0.647818 0.458453 0.458698Z" fill="#A9F9C4"/>
</svg>
