<svg width="21" height="18" viewBox="0 0 21 18" fill="none" xmlns="http://www.w3.org/2000/svg">
<path fill-rule="evenodd" clip-rule="evenodd" d="M10.507 3.00131C9.44618 3.00131 8.42876 3.42273 7.67862 4.17288C6.92847 4.92302 6.50704 5.94044 6.50704 7.00131V8.00131H5.50704C5.04742 8.00131 4.59229 8.09184 4.16765 8.26773C3.74301 8.44362 3.35718 8.70143 3.03217 9.02643C2.70717 9.35144 2.44936 9.73728 2.27347 10.1619C2.09757 10.5866 2.00704 11.0417 2.00704 11.5013C2.00704 11.9609 2.09757 12.4161 2.27347 12.8407C2.44936 13.2653 2.70717 13.6512 3.03217 13.9762C3.35718 14.3012 3.74301 14.559 4.16765 14.7349C4.59229 14.9108 5.04742 15.0013 5.50704 15.0013H15.507C15.9667 15.0013 16.4218 14.9108 16.8464 14.7349C17.2711 14.559 17.6569 14.3012 17.9819 13.9762C18.3069 13.6512 18.5647 13.2653 18.7406 12.8407C18.9165 12.4161 19.007 11.9609 19.007 11.5013C19.007 11.0417 18.9165 10.5866 18.7406 10.1619C18.5647 9.73728 18.3069 9.35144 17.9819 9.02643C17.6569 8.70143 17.2711 8.44362 16.8464 8.26773C16.4218 8.09184 15.9667 8.00131 15.507 8.00131H14.507V7.00131C14.507 5.94044 14.0856 4.92302 13.3355 4.17288C12.5853 3.42273 11.5679 3.00131 10.507 3.00131ZM4.57704 6.07931C4.79668 4.66419 5.51514 3.37427 6.60264 2.44254C7.69014 1.51081 9.07499 0.998688 10.507 0.998688C11.9391 0.998688 13.324 1.51081 14.4115 2.44254C15.499 3.37427 16.2174 4.66419 16.437 6.07931C17.7922 6.31588 19.0095 7.0515 19.8491 8.14116C20.6887 9.23083 21.0897 10.5955 20.973 11.9661C20.8563 13.3368 20.2303 14.614 19.2186 15.546C18.2068 16.478 16.8827 16.9972 15.507 17.0013H5.50704C4.12792 17.0031 2.79846 16.4867 1.78215 15.5544C0.765838 14.6221 0.13685 13.3421 0.0198418 11.9679C-0.0971663 10.5938 0.306346 9.22583 1.15041 8.13516C1.99447 7.0445 3.21748 6.31074 4.57704 6.07931Z" fill="#1E1E1E"/>
</svg>
