<svg width="24" height="20" viewBox="0 0 24 20" fill="none" xmlns="http://www.w3.org/2000/svg">
<path id="Vector" fill-rule="evenodd" clip-rule="evenodd" d="M12.7481 3.73403C16.6921 3.6225 20.0478 6.60152 20.5273 10.4671H21.045C21.1404 10.4671 21.2336 10.4386 21.3126 10.385C21.3915 10.3315 21.4526 10.2556 21.4879 10.167C21.5232 10.0784 21.5312 9.98119 21.5107 9.88804C21.4902 9.79488 21.4422 9.71002 21.3729 9.64442L21.2633 9.54052C21.0845 9.36558 20.9817 9.12739 20.9769 8.87731C20.9721 8.62723 21.0658 8.3853 21.2378 8.20368C21.4098 8.02206 21.6463 7.91532 21.8963 7.90646C22.1463 7.89761 22.3897 7.98735 22.5741 8.15634L22.6838 8.26025C24.2492 9.74166 23.2005 12.3737 21.045 12.3737H20.5045C20.2785 13.6702 19.5931 14.715 18.6798 15.6282V19.0467C18.6798 19.2995 18.5793 19.542 18.4005 19.7208C18.2218 19.8996 17.9793 20 17.7264 20H14.8664C14.6663 20 14.4712 19.9371 14.3088 19.8201C14.1464 19.703 14.025 19.5379 13.9617 19.348L13.6118 18.2974C13.4996 17.9605 13.2841 17.6673 12.996 17.4596C12.7078 17.2519 12.3616 17.1402 12.0064 17.1402C11.6512 17.1402 11.305 17.2519 11.0169 17.4596C10.7288 17.6673 10.5133 17.9605 10.401 18.2974L10.0511 19.348C9.98788 19.5379 9.86646 19.703 9.70407 19.8201C9.54169 19.9371 9.34659 20 9.14642 20H6.28642C6.03358 20 5.79109 19.8996 5.61231 19.7208C5.43352 19.542 5.33308 19.2995 5.33308 19.0467V16.1868C5.33308 15.6835 4.95461 15.0334 4.11663 14.4156C3.3082 13.8189 2.27478 13.4128 1.41869 13.3213C1.18473 13.2963 0.968258 13.1857 0.81092 13.0108C0.653582 12.8359 0.566492 12.609 0.566406 12.3737V8.56053C0.566501 8.38354 0.615868 8.21008 0.70898 8.05956C0.802091 7.90904 0.93527 7.78741 1.0936 7.70829L2.63514 6.93708C3.26244 5.19256 4.84021 4.20496 6.28642 3.89895V0.934223C6.28659 0.713791 6.36316 0.500232 6.50308 0.329899C6.64301 0.159565 6.83764 0.0429842 7.05385 0L7.35892 0.00190667C7.63729 0.00190667 7.91662 0.00381317 8.19309 0.0343184C10.1293 0.250715 12.0875 1.93708 12.7481 3.73308V3.73403ZM8.19309 4.74738V1.96378C9.36664 2.29171 10.9406 3.42803 11.0531 4.77026C11.0577 4.90128 11.0891 5.02997 11.1452 5.14845C11.2013 5.26694 11.281 5.37271 11.3795 5.45928C11.478 5.54586 11.593 5.61142 11.7177 5.65194C11.8424 5.69247 11.9741 5.7071 12.1046 5.69495L12.3716 5.66826C15.734 5.32126 18.6798 8.01716 18.6798 11.4204C18.6798 12.388 18.2956 13.3174 17.6111 14.001C17.5489 14.0624 17.4857 14.1228 17.4214 14.1821C17.1087 14.4728 16.7731 14.7865 16.7731 15.2336V18.0934H15.5528L15.4203 17.694C15.1813 16.9776 14.7231 16.3546 14.1104 15.9132C13.4977 15.4717 12.7616 15.2341 12.0064 15.2341C11.2512 15.2341 10.5152 15.4717 9.90249 15.9132C9.2898 16.3546 8.83151 16.9776 8.59253 17.694L8.45907 18.0934H7.23975V16.1868C7.23975 14.7836 6.27402 13.6378 5.24823 12.8808C4.41536 12.2724 3.47317 11.83 2.47308 11.5777V9.14967L3.85255 8.45949C3.97558 8.39798 4.08384 8.31059 4.16991 8.2033C4.25597 8.09601 4.3178 7.97138 4.35115 7.83794C4.69435 6.46902 6.12054 5.70067 7.23975 5.70067C7.49259 5.70067 7.73508 5.60023 7.91386 5.42146C8.09265 5.24268 8.19309 5.00021 8.19309 4.74738ZM7.71642 10.4671C8.09568 10.4671 8.45941 10.3165 8.72758 10.0483C8.99576 9.78013 9.14642 9.41642 9.14642 9.03718C9.14642 8.65794 8.99576 8.29423 8.72758 8.02606C8.45941 7.7579 8.09568 7.60725 7.71642 7.60725C7.33716 7.60725 6.97343 7.7579 6.70525 8.02606C6.43708 8.29423 6.28642 8.65794 6.28642 9.03718C6.28642 9.41642 6.43708 9.78013 6.70525 10.0483C6.97343 10.3165 7.33716 10.4671 7.71642 10.4671V10.4671Z" fill="white"/>
</svg>
