<svg width="28" height="29" viewBox="0 0 28 29" fill="none" xmlns="http://www.w3.org/2000/svg">
<path d="M13.992 26.078C7.57917 26.078 2.38086 20.8946 2.38086 14.5C2.38086 8.10543 7.57917 2.92194 13.992 2.92194C20.4048 2.92194 25.6031 8.10543 25.6031 14.5C25.6031 20.8946 20.4048 26.078 13.992 26.078ZM13.992 23.7624C16.4556 23.7624 18.8182 22.7866 20.5603 21.0495C22.3023 19.3125 23.2809 16.9565 23.2809 14.5C23.2809 12.0434 22.3023 9.6875 20.5603 7.95045C18.8182 6.21341 16.4556 5.23755 13.992 5.23755C11.5284 5.23755 9.16576 6.21341 7.42375 7.95045C5.68174 9.6875 4.70309 12.0434 4.70309 14.5C4.70309 16.9565 5.68174 19.3125 7.42375 21.0495C9.16576 22.7866 11.5284 23.7624 13.992 23.7624ZM13.992 12.8629L17.2756 9.58742L18.9186 11.2257L15.6338 14.5L18.9186 17.7743L17.2756 19.4126L13.992 16.1371L10.7084 19.4126L9.06539 17.7743L12.3502 14.5L9.06539 11.2257L10.7084 9.58742L13.992 12.8629Z" fill="white"/>
</svg>
