<svg width="28" height="29" viewBox="0 0 28 29" fill="none" xmlns="http://www.w3.org/2000/svg">
<path d="M13.992 26.0781C7.57917 26.0781 2.38086 20.8946 2.38086 14.5C2.38086 8.10545 7.57917 2.92195 13.992 2.92195C20.4048 2.92195 25.6031 8.10545 25.6031 14.5C25.6031 20.8946 20.4048 26.0781 13.992 26.0781ZM13.992 23.7625C16.4556 23.7625 18.8182 22.7866 20.5603 21.0495C22.3023 19.3125 23.2809 16.9566 23.2809 14.5C23.2809 12.0435 22.3023 9.68751 20.5603 7.95047C18.8182 6.21342 16.4556 5.23756 13.992 5.23756C11.5284 5.23756 9.16576 6.21342 7.42375 7.95047C5.68174 9.68751 4.70309 12.0435 4.70309 14.5C4.70309 16.9566 5.68174 19.3125 7.42375 21.0495C9.16576 22.7866 11.5284 23.7625 13.992 23.7625ZM12.8344 19.1312L7.90776 14.2187L9.54958 12.5815L12.8344 15.857L19.4016 9.30725L21.0446 10.9444L12.8344 19.1312Z" fill="white"/>
</svg>
