<svg width="14" height="14" viewBox="0 0 14 14" fill="none" xmlns="http://www.w3.org/2000/svg">
<path fill-rule="evenodd" clip-rule="evenodd" d="M9.92253 0.676727C10.356 0.243419 10.9438 0 11.5566 0C12.1695 0 12.7573 0.243419 13.1908 0.676727L13.3233 0.809244C13.7566 1.24268 14 1.83047 14 2.44336C14 3.05624 13.7566 3.64403 13.3233 4.07747L11.985 5.41727L4.3969 13.0046C4.29828 13.1033 4.17472 13.1733 4.03941 13.2072L0.957636 13.9777C0.828522 14.01 0.693232 14.0084 0.564951 13.9729C0.436671 13.9374 0.319776 13.8692 0.225658 13.7751C0.13154 13.681 0.0634113 13.5641 0.0279102 13.4358C-0.00759094 13.3075 -0.00925288 13.1722 0.0230863 13.0431L0.793531 9.96135C0.827464 9.82605 0.897498 9.70249 0.996158 9.60387L8.62818 1.97184L9.92253 0.677498V0.676727ZM12.1013 1.76614C11.9569 1.6217 11.7609 1.54056 11.5566 1.54056C11.3523 1.54056 11.1564 1.6217 11.0119 1.76614L10.2523 2.52579L11.4503 3.7716L12.2339 2.98806C12.3783 2.84358 12.4594 2.64765 12.4594 2.44336C12.4594 2.23906 12.3783 2.04313 12.2339 1.89865L12.1013 1.76614V1.76614ZM10.3601 4.86101L9.1621 3.61597L2.23657 10.5423L1.82901 12.171L3.4585 11.7634L10.3609 4.86101H10.3601Z" fill="#8E8E8E"/>
</svg>
