<svg width="12" height="12" viewBox="0 0 12 12" fill="none" xmlns="http://www.w3.org/2000/svg">
<path fill-rule="evenodd" clip-rule="evenodd" d="M8.50502 0.58002C8.87654 0.208633 9.38036 0 9.90569 0C10.431 0 10.9348 0.208633 11.3064 0.58002L11.4199 0.693599C11.7914 1.0651 12 1.56889 12 2.09419C12 2.61949 11.7914 3.12328 11.4199 3.49478L10.2729 4.64312L3.76877 11.1462C3.68424 11.2308 3.57833 11.2908 3.46236 11.3199L0.820831 11.9802C0.710162 12.0079 0.594199 12.0065 0.484244 11.9761C0.374289 11.9457 0.274093 11.8873 0.193421 11.8066C0.112749 11.7259 0.0543525 11.6257 0.023923 11.5158C-0.00650652 11.4058 -0.00793104 11.2899 0.0197883 11.1792L0.68017 8.53784C0.709255 8.42186 0.769284 8.31596 0.85385 8.23143L7.39558 1.69006L8.50502 0.58068V0.58002ZM10.3726 1.51375C10.2487 1.38995 10.0808 1.32041 9.90569 1.32041C9.73058 1.32041 9.56264 1.38995 9.4388 1.51375L8.78767 2.16485L9.81456 3.23262L10.4862 2.56105C10.61 2.43722 10.6795 2.26929 10.6795 2.09419C10.6795 1.91909 10.61 1.75116 10.4862 1.62733L10.3726 1.51375ZM8.88012 4.16635L7.85323 3.09924L1.91706 9.03573L1.56772 10.4317L2.96443 10.0824L8.88078 4.16635H8.88012Z" fill="#A9F9C4"/>
</svg>
