<svg width="16" height="16" viewBox="0 0 16 16" fill="none" xmlns="http://www.w3.org/2000/svg">
<path fill-rule="evenodd" clip-rule="evenodd" d="M2.48262 5.63521L4.85996 4.79658C4.36911 5.45731 3.94756 6.16679 3.60196 6.91381L2.48262 5.63521ZM0.831289 5.7732L3.03329 8.28908L2.71462 9.08637C2.66612 9.20738 2.65417 9.33994 2.68024 9.46767C2.70631 9.5954 2.76925 9.71268 2.86129 9.805L3.07129 10.0143C1.93529 11.2943 1.30862 12.6335 0.700623 14.4561C0.66145 14.5736 0.655765 14.6996 0.684205 14.8201C0.712646 14.9406 0.774087 15.0508 0.861644 15.1384C0.949201 15.2259 1.05941 15.2874 1.17993 15.3158C1.30044 15.3443 1.42649 15.3386 1.54396 15.2994C3.36662 14.6914 4.70596 14.0648 5.98596 12.9289L6.19529 13.1382C6.28754 13.2303 6.4048 13.2934 6.53253 13.3196C6.66027 13.3458 6.79288 13.3339 6.91396 13.2855L7.71129 12.9668L10.2273 15.1687C10.3092 15.2405 10.4076 15.2911 10.5136 15.3161C10.6196 15.3411 10.7302 15.3397 10.8356 15.3121C10.941 15.2844 11.038 15.2314 11.1181 15.1576C11.1983 15.0838 11.2591 14.9915 11.2953 14.8888L13.286 9.24903C14.6082 7.68453 15.3335 5.70231 15.3333 3.65397V1.33408C15.3333 1.15728 15.263 0.987721 15.138 0.862703C15.013 0.737684 14.8434 0.66745 14.6666 0.66745H12.3466C10.2985 0.667163 8.31642 1.39221 6.75196 2.71402L1.11196 4.70525C1.00932 4.74149 0.917114 4.80231 0.843401 4.8824C0.769688 4.96249 0.716707 5.05941 0.689086 5.16469C0.661465 5.26997 0.660045 5.38041 0.68495 5.48637C0.709855 5.59233 0.760326 5.69058 0.831956 5.77253L0.831289 5.7732ZM2.45662 13.5435C2.87529 12.5329 3.34462 11.7289 4.01596 10.9589L5.04129 11.9842C4.27129 12.6555 3.46729 13.1248 2.45662 13.5435ZM6.82729 11.8849L6.47129 11.5289L4.47129 9.52902L4.11529 9.17303L4.58862 7.98976C5.023 6.90424 5.63292 5.89753 6.39396 5.0099L6.77796 4.56126C7.46651 3.75805 8.32071 3.11332 9.28194 2.67134C10.2432 2.22935 11.2886 2.00058 12.3466 2.00072H14V3.65397C14.0001 4.7119 13.7713 5.75733 13.3293 6.71851C12.8873 7.67968 12.2425 8.53385 11.4393 9.22237L10.9906 9.60635C10.1029 10.3673 9.09618 10.9772 8.01062 11.4116L6.82729 11.8849ZM10.3653 13.5175L9.08662 12.3989C9.83369 12.0533 10.5432 11.6318 11.204 11.1409L10.3653 13.5175ZM9.99996 5.33389C9.99996 5.15709 10.0702 4.98753 10.1952 4.86251C10.3202 4.73749 10.4898 4.66725 10.6666 4.66725C10.8434 4.66725 11.013 4.73749 11.138 4.86251C11.2631 4.98753 11.3333 5.15709 11.3333 5.33389C11.3333 5.51069 11.2631 5.68025 11.138 5.80527C11.013 5.93029 10.8434 6.00052 10.6666 6.00052C10.4898 6.00052 10.3202 5.93029 10.1952 5.80527C10.0702 5.68025 9.99996 5.51069 9.99996 5.33389ZM10.6666 3.33399C10.1362 3.33399 9.62748 3.54469 9.25241 3.91974C8.87733 4.2948 8.66662 4.80348 8.66662 5.33389C8.66662 5.8643 8.87733 6.37298 9.25241 6.74803C9.62748 7.12309 10.1362 7.33379 10.6666 7.33379C11.1971 7.33379 11.7058 7.12309 12.0808 6.74803C12.4559 6.37298 12.6666 5.8643 12.6666 5.33389C12.6666 4.80348 12.4559 4.2948 12.0808 3.91974C11.7058 3.54469 11.1971 3.33399 10.6666 3.33399Z" fill="#BDBDBD"/>
</svg>
