<svg width="16" height="15" viewBox="0 0 16 15" fill="none" xmlns="http://www.w3.org/2000/svg">
<path fill-rule="evenodd" clip-rule="evenodd" d="M0.766562 -0.000793359C0.563257 -0.000793359 0.368279 0.0782285 0.224521 0.218888C0.0807625 0.359548 0 0.550324 0 0.749247C0 0.94817 0.0807625 1.13895 0.224521 1.27961C0.368279 1.42027 0.563257 1.49929 0.766562 1.49929H1.12838C1.29658 1.49925 1.46013 1.55335 1.59381 1.65325C1.72749 1.75314 1.82387 1.89328 1.86811 2.05207L2.187 3.19663L3.83281 9.09945V10.4998C3.83281 11.0203 4.01295 11.4988 4.31574 11.8798C4.09902 12.1189 3.94834 12.4082 3.878 12.7203C3.80767 13.0323 3.82 13.3568 3.91385 13.6629C4.00769 13.969 4.17993 14.2465 4.4142 14.4692C4.64848 14.6918 4.93703 14.8522 5.25245 14.9351C5.56788 15.0179 5.89972 15.0205 6.21647 14.9427C6.53322 14.8648 6.82438 14.709 7.0623 14.4901C7.30022 14.2712 7.47701 13.9964 7.5759 13.6918C7.67478 13.3873 7.69247 13.063 7.62729 12.7499H10.0036C9.9441 13.0362 9.95376 13.3322 10.0319 13.6142C10.11 13.8962 10.2543 14.1564 10.4535 14.3742C10.6526 14.5919 10.901 14.7611 11.1788 14.8682C11.4566 14.9754 11.7562 15.0175 12.0536 14.9913C12.351 14.9651 12.638 14.8712 12.8918 14.7172C13.1455 14.5632 13.359 14.3532 13.5151 14.1042C13.6713 13.8551 13.7658 13.5738 13.7911 13.2827C13.8164 12.9915 13.7718 12.6987 13.6609 12.4274C13.7407 12.3149 13.7874 12.1832 13.7961 12.0466C13.8049 11.91 13.7752 11.7736 13.7104 11.6523C13.6455 11.531 13.548 11.4293 13.4283 11.3584C13.3087 11.2875 13.1715 11.2499 13.0316 11.2498H6.13326C5.92996 11.2498 5.73498 11.1708 5.59122 11.0301C5.44746 10.8895 5.3667 10.6987 5.3667 10.4998V9.74973H13.2132C13.5496 9.7498 13.8767 9.6416 14.1441 9.44181C14.4114 9.24203 14.6042 8.96174 14.6927 8.64417L15.946 4.14393C16.0081 3.92126 16.0168 3.68759 15.9714 3.46109C15.9261 3.2346 15.8279 3.0214 15.6846 2.83808C15.5413 2.65476 15.3567 2.50626 15.1452 2.40415C14.9337 2.30203 14.7009 2.24905 14.465 2.24933H3.51239L3.34758 1.6568C3.21472 1.18058 2.9255 0.760322 2.52448 0.460787C2.12346 0.161252 1.63289 -0.000939024 1.12838 -0.000793359H0.766562ZM11.8817 12.7499C11.7801 12.7499 11.6826 12.7894 11.6107 12.8597C11.5388 12.9301 11.4984 13.0255 11.4984 13.1249C11.4984 13.2244 11.5388 13.3198 11.6107 13.3901C11.6826 13.4604 11.7801 13.4999 11.8817 13.4999C11.9834 13.4999 12.0809 13.4604 12.1527 13.3901C12.2246 13.3198 12.265 13.2244 12.265 13.1249C12.265 13.0255 12.2246 12.9301 12.1527 12.8597C12.0809 12.7894 11.9834 12.7499 11.8817 12.7499ZM13.2125 8.24965H5.18503L3.93016 3.74941H14.4658L13.2125 8.24965ZM5.74922 12.7499C5.64756 12.7499 5.55007 12.7894 5.4782 12.8597C5.40632 12.9301 5.36594 13.0255 5.36594 13.1249C5.36594 13.2244 5.40632 13.3198 5.4782 13.3901C5.55007 13.4604 5.64756 13.4999 5.74922 13.4999C5.85087 13.4999 5.94836 13.4604 6.02024 13.3901C6.09212 13.3198 6.1325 13.2244 6.1325 13.1249C6.1325 13.0255 6.09212 12.9301 6.02024 12.8597C5.94836 12.7894 5.85087 12.7499 5.74922 12.7499Z" fill="#BDBDBD"/>
</svg>
